<svg width="308" height="308" viewBox="0 0 308 308" fill="none" xmlns="https://www.w3.org/2000/svg">
<path fill-rule="evenodd" clip-rule="evenodd" d="M50.7753 249.899C59.6308 281.831 92.6955 300.538 124.627 291.683L249.899 256.942C281.831 248.086 300.538 215.022 291.683 183.09L256.942 57.8178C248.086 25.8859 215.022 7.17881 183.09 16.0343L57.8178 50.7753C25.8859 59.6308 7.1788 92.6955 16.0343 124.627L50.7753 249.899ZM245.812 184.291C249.851 198.858 241.318 213.941 226.751 217.98C212.185 222.02 197.101 213.486 193.062 198.92C189.022 184.353 197.556 169.27 212.122 165.231C226.689 161.191 241.772 169.725 245.812 184.291ZM94.9233 143.396C109.49 139.356 118.023 124.273 113.984 109.707C109.944 95.14 94.861 86.6064 80.2945 90.646C65.728 94.6856 57.1944 109.769 61.234 124.335C65.2736 138.902 80.3569 147.435 94.9233 143.396Z" fill="url(#paint0_linear)"/>
<defs>
<linearGradient id="paint0_linear" x1="285.5" y1="225.5" x2="-13.5" y2="56.5" gradientUnits="userSpaceOnUse">
<stop stop-color="#E2E1FF"/>
<stop offset="1" stop-color="#9C9AED" stop-opacity="0.5"/>
</linearGradient>
</defs>
</svg>
