<svg fill="none" height="281" viewBox="0 0 281 281" width="281" xmlns="http://www.w3.org/2000/svg" xmlns:xlink="http://www.w3.org/1999/xlink"><linearGradient id="a" gradientUnits="userSpaceOnUse" x1="289" x2="11" y1="233" y2="74"><stop offset=".111549" stop-color="#111041"/><stop offset="1" stop-color="#111040" stop-opacity=".5"/></linearGradient><path clip-rule="evenodd" d="m37.7753 236.899c8.8555 31.932 41.9202 50.639 73.8517 41.784l125.272-34.741c31.932-8.856 50.639-41.92 41.784-73.852l-34.741-125.2722c-8.856-31.9319-41.92-50.63902-73.852-41.78353l-125.2722 34.74103c-31.9319 8.8555-50.63899 41.9202-41.78349 73.8517zm195.0367-65.608c4.039 14.567-4.494 29.65-19.061 33.689-14.566 4.04-29.65-4.494-33.689-19.06-4.04-14.567 4.494-29.65 19.06-33.689 14.567-4.04 29.65 4.494 33.69 19.06zm-150.8887-40.895c14.5665-4.04 23.0997-19.123 19.0607-33.6895-4.0398-14.5665-19.123-23.1002-33.6895-19.0605-14.5665 4.0396-23.1001 19.1228-19.0605 33.689 4.0396 14.567 19.1229 23.1 33.6893 19.061z" fill="url(#a)" fill-rule="evenodd"/></svg>