<svg fill="none" height="308" viewBox="0 0 308 308" width="308" xmlns="http://www.w3.org/2000/svg" xmlns:xlink="http://www.w3.org/1999/xlink"><linearGradient id="a" gradientUnits="userSpaceOnUse" x1="285.5" x2="-13.5" y1="225.5" y2="56.5"><stop offset="0" stop-color="#e2e1ff"/><stop offset="1" stop-color="#9c9aed" stop-opacity=".5"/></linearGradient><path clip-rule="evenodd" d="m50.7753 249.899c8.8555 31.932 41.9202 50.639 73.8517 41.784l125.272-34.741c31.932-8.856 50.639-41.92 41.784-73.852l-34.741-125.2722c-8.856-31.9319-41.92-50.63899-73.852-41.7835l-125.2722 34.741c-31.9319 8.8555-50.639 41.9202-41.7835 73.8517zm195.0367-65.608c4.039 14.567-4.494 29.65-19.061 33.689-14.566 4.04-29.65-4.494-33.689-19.06-4.04-14.567 4.494-29.65 19.06-33.689 14.567-4.04 29.65 4.494 33.69 19.06zm-150.8887-40.895c14.5667-4.04 23.0997-19.123 19.0607-33.689-4.04-14.567-19.123-23.1006-33.6895-19.061s-23.1001 19.123-19.0605 33.689c4.0396 14.567 19.1229 23.1 33.6893 19.061z" fill="url(#a)" fill-rule="evenodd"/></svg>