<svg fill="none" height="1815" viewBox="0 0 1869 1815" width="1869" xmlns="http://www.w3.org/2000/svg" xmlns:xlink="http://www.w3.org/1999/xlink"><linearGradient id="a" gradientUnits="userSpaceOnUse" x1="58.5" x2="1778.5" y1="76.5" y2="1631"><stop offset="0" stop-color="#e3e6ec" stop-opacity="0"/><stop offset=".369792" stop-color="#ff5a48"/><stop offset=".682292" stop-color="#392aea"/><stop offset="1" stop-color="#fff" stop-opacity="0"/></linearGradient><mask id="b" height="2061" maskUnits="userSpaceOnUse" width="2084" x="0" y="-246"><path clip-rule="evenodd" d="m1667.49 866.855c60.13-354.884-283.95-643.294-622.88-522.1l-51.93 18.57c-362.063 129.469-730.296-176.896-668.843-556.472l8.471-52.322 1.974.319-8.471 52.323c-61.21 378.073 305.566 683.226 666.199 554.269l51.93-18.57c340.36-121.709 685.91 167.926 625.52 524.317l-21.07 124.372c-43.48 256.639 177.86 480.169 434.91 439.209l.32 1.97c-258.41 41.18-480.91-183.52-437.2-441.513zm-22.61 26.95c60.12-354.884-283.96-643.294-622.88-522.1l-51.93 18.57c-362.067 129.47-730.3-176.896-668.847-556.472l8.471-52.322 1.974.32-8.471 52.322c-61.21 378.073 305.566 683.226 666.203 554.269l51.93-18.57c340.36-121.709 685.9 167.926 625.52 524.317l-21.07 124.371c-43.49 256.64 177.85 480.17 434.91 439.21l.31 1.97c-258.41 41.18-480.91-183.52-437.2-441.51zm-645.49-495.149c338.92-121.195 683 167.215 622.87 522.1l-21.07 124.374c-43.71 257.99 178.79 482.69 437.2 441.51l-.31-1.97c-257.06 40.96-478.4-182.56-434.92-439.21l21.07-124.37c60.39-356.392-285.15-646.027-625.52-524.317l-51.93 18.569c-360.631 128.957-727.407-176.195-666.197-554.269l8.471-52.322-1.974-.319-8.471 52.322c-61.453 379.576 306.78 685.941 668.851 556.471zm600.26 549.05c60.13-354.884-283.95-643.294-622.88-522.1l-51.93 18.57c-362.065 129.47-730.298-176.896-668.845-556.472l8.471-52.322 1.974.32-8.471 52.322c-61.21 378.073 305.566 683.226 666.201 554.269l51.93-18.57c340.36-121.709 685.9 167.926 625.52 524.317l-21.07 124.37c-43.48 256.65 177.85 480.17 434.91 439.21l.32 1.98c-258.41 41.17-480.91-183.53-437.2-441.52zm-645.49-495.149c338.92-121.195 683 167.215 622.87 522.1l-21.07 124.373c-43.71 257.99 178.79 482.69 437.2 441.52l-.31-1.98c-257.06 40.96-478.4-182.56-434.92-439.21l21.08-124.369c60.38-356.392-285.16-646.027-625.53-524.318l-51.93 18.57c-360.629 128.957-727.405-176.195-666.195-554.2687l8.471-52.3223-1.974-.32-8.471 52.3226c-61.453 379.5764 306.78 685.9414 668.849 556.4714zm600.26 549.053c60.13-354.888-283.95-643.298-622.88-522.103l-51.93 18.57c-362.063 129.469-730.296-176.896-668.843-556.4721l8.471-52.3219 1.974.319-8.471 52.3225c-61.21 378.0735 305.566 683.2255 666.199 554.2685l51.93-18.569c340.36-121.71 685.91 167.925 625.52 524.316l-21.07 124.37c-43.48 256.65 177.86 480.17 434.91 439.21l.32 1.98c-258.41 41.17-480.91-183.53-437.2-441.52zm-645.49-495.153c338.92-121.195 683 167.215 622.88 522.103l-21.07 124.37c-43.72 257.99 178.78 482.69 437.19 441.52l-.31-1.98c-257.06 40.96-478.4-182.56-434.91-439.21l21.07-124.37c60.38-356.391-285.16-646.026-625.52-524.316l-51.934 18.569c-360.633 128.957-727.409-176.195-666.199-554.2684l8.471-52.3223-1.974-.3196-8.471 52.3223c-61.453 379.576 306.78 685.941 668.846 556.472zm600.26 549.053c60.13-354.887-283.95-643.297-622.87-522.103l-51.935 18.57c-362.066 129.47-730.299-176.896-668.846-556.47155l8.471-52.32235 1.974.3197-8.471 52.3223c-61.21 378.0729 305.566 683.2259 666.199 554.2689l51.928-18.57c340.37-121.709 685.91 167.926 625.52 524.316l-21.07 124.37c-43.48 256.65 177.86 480.17 434.92 439.21l.31 1.98c-258.41 41.17-480.91-183.53-437.2-441.52zm-645.488-495.153c338.928-121.194 683.008 167.216 622.878 522.103l-21.07 124.37c-43.71 257.99 178.79 482.69 437.2 441.52l-.32-1.98c-257.06 40.96-478.39-182.56-434.91-439.21l21.07-124.37c60.38-356.39-285.16-646.025-625.521-524.316l-51.931 18.57c-360.633 128.957-727.408-176.196-666.199-554.269l8.471-52.3223-1.974-.3197-8.471 52.3224c-61.453 379.5756 306.78 685.9416 668.846 556.4716zm600.268 549.053c60.12-354.886-283.96-643.297-622.882-522.102l-51.931 18.57c-362.066 129.469-730.299-176.896-668.846-556.4719l8.471-52.32236 1.974.31966-8.471 52.3223c-61.209 378.0733 305.566 683.2253 666.199 554.2683l51.931-18.569c340.365-121.709 685.905 167.925 625.525 524.315l-21.08 124.37c-43.48 256.65 177.86 480.17 434.92 439.21l.31 1.98c-258.41 41.17-480.91-183.53-437.2-441.52zm-645.496-495.152c338.926-121.194 683.006 167.216 622.876 522.102l-21.07 124.37c-43.71 257.99 178.79 482.69 437.2 441.52l-.32-1.98c-257.05 40.96-478.39-182.56-434.91-439.21l21.07-124.37c60.39-356.389-285.15-646.024-625.519-524.315l-51.931 18.57c-360.633 128.957-727.408-176.196-666.199-554.2693l8.471-52.3223-1.974-.3196-8.471 52.3223c-61.453 379.5759 306.78 685.9409 668.846 556.4719zm600.266 549.052c60.12-354.886-283.95-643.296-622.88-522.102l-51.931 18.57c-362.066 129.47-730.299-176.896-668.846-556.472l8.471-52.322 1.974.3196-8.471 52.3224c-61.209 378.073 305.566 683.226 666.199 554.269l51.931-18.57c340.363-121.709 685.903 167.926 625.523 524.315l-21.07 124.37c-43.49 256.65 177.85 480.17 434.91 439.21l.31 1.98c-258.41 41.17-480.91-183.53-437.19-441.52zm-645.494-495.151c338.924-121.195 683.004 167.215 622.874 522.101l-21.07 124.37c-43.71 257.99 178.79 482.69 437.2 441.52l-.31-1.98c-257.06 40.96-478.4-182.56-434.92-439.21l21.08-124.37c60.38-356.389-285.16-646.024-625.527-524.314l-51.931 18.569c-360.633 128.957-727.408-176.195-666.199-554.269l8.471-52.3219-1.974-.3196-8.471 52.3225c-61.45299 379.576 306.78 685.941 668.846 556.471zm600.264 549.051c60.13-354.886-283.95-643.296-622.878-522.101l-51.931 18.57c-362.066 129.469-730.299-176.896-668.846-556.472l8.471-52.322 1.974.319-8.471 52.323c-61.209 378.073 305.566 683.225 666.199 554.268l51.931-18.569c340.361-121.71 685.901 167.925 625.521 524.314l-21.07 124.38c-43.48 256.64 177.85 480.16 434.91 439.2l.32 1.98c-258.41 41.17-480.91-183.53-437.2-441.52zm-645.492-495.15c338.922-121.195 683.002 167.215 622.882 522.1l-21.08 124.37c-43.71 257.99 178.79 482.69 437.2 441.52l-.31-1.98c-257.06 40.96-478.4-182.56-434.92-439.2l21.08-124.38c60.38-356.388-285.16-646.023-625.525-524.314l-51.931 18.57c-360.633 128.957-727.4084-176.195-666.19899-554.269l8.47099-52.322-1.974-.32-8.47099 52.323c-61.45301 379.576 306.77999 685.941 668.84599 556.471z" fill="#ff9636" fill-rule="evenodd"/></mask><g mask="url(#b)"><path d="m2388.53-358.587h-2714.21v2480.437h2714.21z" fill="url(#a)"/></g></svg>