<svg width="1869" height="1815" viewBox="0 0 1869 1815" fill="none" xmlns="http://www.w3.org/2000/svg">
<mask id="mask0" mask-type="alpha" maskUnits="userSpaceOnUse" x="0" y="-246" width="2084" height="2061">
<path fill-rule="evenodd" clip-rule="evenodd" d="M1667.49 866.855C1727.62 511.971 1383.54 223.561 1044.61 344.755L992.68 363.325C630.617 492.794 262.384 186.429 323.837 -193.147L332.308 -245.469L334.282 -245.15L325.811 -192.827C264.601 185.246 631.377 490.399 992.01 361.442L1043.94 342.872C1384.3 221.163 1729.85 510.798 1669.46 867.189L1648.39 991.561C1604.91 1248.2 1826.25 1471.73 2083.3 1430.77L2083.62 1432.74C1825.21 1473.92 1602.71 1249.22 1646.42 991.227L1667.49 866.855ZM1644.88 893.805C1705 538.921 1360.92 250.511 1022 371.705L970.07 390.275C608.003 519.745 239.77 213.379 301.223 -166.197L309.694 -218.519L311.668 -218.199L303.197 -165.877C241.987 212.196 608.763 517.349 969.4 388.392L1021.33 369.822C1361.69 248.113 1707.23 537.748 1646.85 894.139L1625.78 1018.51C1582.29 1275.15 1803.63 1498.68 2060.69 1457.72L2061 1459.69C1802.59 1500.87 1580.09 1276.17 1623.8 1018.18L1644.88 893.805ZM999.39 398.656C1338.31 277.461 1682.39 565.871 1622.26 920.756L1601.19 1045.13C1557.48 1303.12 1779.98 1527.82 2038.39 1486.64L2038.08 1484.67C1781.02 1525.63 1559.68 1302.11 1603.16 1045.46L1624.23 921.09C1684.62 564.698 1339.08 275.063 998.71 396.773L946.78 415.342C586.149 544.299 219.373 239.147 280.583 -138.927L289.054 -191.249L287.08 -191.568L278.609 -139.246C217.156 240.33 585.389 546.695 947.46 417.225L999.39 398.656ZM1599.65 947.706C1659.78 592.822 1315.7 304.412 976.77 425.606L924.84 444.176C562.775 573.646 194.542 267.28 255.995 -112.296L264.466 -164.618L266.44 -164.298L257.969 -111.976C196.759 266.097 563.535 571.25 924.17 442.293L976.1 423.723C1316.46 302.014 1662 591.649 1601.62 948.04L1580.55 1072.41C1537.07 1329.06 1758.4 1552.58 2015.46 1511.62L2015.78 1513.6C1757.37 1554.77 1534.87 1330.07 1578.58 1072.08L1599.65 947.706ZM954.16 452.557C1293.08 331.362 1637.16 619.772 1577.03 974.657L1555.96 1099.03C1512.25 1357.02 1734.75 1581.72 1993.16 1540.55L1992.85 1538.57C1735.79 1579.53 1514.45 1356.01 1557.93 1099.36L1579.01 974.991C1639.39 618.599 1293.85 328.964 953.48 450.673L901.55 469.243C540.921 598.2 174.145 293.048 235.355 -85.0257L243.826 -137.348L241.852 -137.668L233.381 -85.3454C171.928 294.231 540.161 600.596 902.23 471.126L954.16 452.557ZM1554.42 1001.61C1614.55 646.722 1270.47 358.312 931.54 479.507L879.61 498.077C517.547 627.546 149.314 321.181 210.767 -58.3951L219.238 -110.717L221.212 -110.398L212.741 -58.0755C151.531 319.998 518.307 625.15 878.94 496.193L930.87 477.624C1271.23 355.914 1616.78 645.549 1556.39 1001.94L1535.32 1126.31C1491.84 1382.96 1713.18 1606.48 1970.23 1565.52L1970.55 1567.5C1712.14 1608.67 1489.64 1383.97 1533.35 1125.98L1554.42 1001.61ZM908.93 506.457C1247.85 385.262 1591.93 673.672 1531.81 1028.56L1510.74 1152.93C1467.02 1410.92 1689.52 1635.62 1947.93 1594.45L1947.62 1592.47C1690.56 1633.43 1469.22 1409.91 1512.71 1153.26L1533.78 1028.89C1594.16 672.499 1248.62 382.864 908.26 504.574L856.326 523.143C495.693 652.1 128.917 346.948 190.127 -31.1254L198.598 -83.4477L196.624 -83.7673L188.153 -31.445C126.7 348.131 494.933 654.496 856.999 525.027L908.93 506.457ZM1509.19 1055.51C1569.32 700.623 1225.24 412.213 886.32 533.407L834.385 551.977C472.319 681.447 104.086 375.081 165.539 -4.49455L174.01 -56.8169L175.984 -56.4972L167.513 -4.1749C106.303 373.898 473.079 679.051 833.712 550.094L885.64 531.524C1226.01 409.815 1571.55 699.45 1511.16 1055.84L1490.09 1180.21C1446.61 1436.86 1667.95 1660.38 1925.01 1619.42L1925.32 1621.4C1666.91 1662.57 1444.41 1437.87 1488.12 1179.88L1509.19 1055.51ZM863.702 560.357C1202.63 439.163 1546.71 727.573 1486.58 1082.46L1465.51 1206.83C1421.8 1464.82 1644.3 1689.52 1902.71 1648.35L1902.39 1646.37C1645.33 1687.33 1424 1463.81 1467.48 1207.16L1488.55 1082.79C1548.93 726.4 1203.39 436.765 863.029 558.474L811.098 577.044C450.465 706.001 83.69 400.848 144.899 22.775L153.37 -29.5473L151.396 -29.867L142.925 22.4554C81.472 402.031 449.705 708.397 811.771 578.927L863.702 560.357ZM1463.97 1109.41C1524.09 754.524 1180.01 466.113 841.088 587.308L789.157 605.878C427.091 735.347 58.858 428.982 120.311 49.4061L128.782 -2.91626L130.756 -2.5966L122.285 49.7257C61.076 427.799 427.851 732.951 788.484 603.994L840.415 585.425C1180.78 463.716 1526.32 753.35 1465.94 1109.74L1444.86 1234.11C1401.38 1490.76 1622.72 1714.28 1879.78 1673.32L1880.09 1675.3C1621.68 1716.47 1399.18 1491.77 1442.89 1233.78L1463.97 1109.41ZM818.474 614.258C1157.4 493.064 1501.48 781.474 1441.35 1136.36L1420.28 1260.73C1376.57 1518.72 1599.07 1743.42 1857.48 1702.25L1857.16 1700.27C1600.11 1741.23 1378.77 1517.71 1422.25 1261.06L1443.32 1136.69C1503.71 780.301 1158.17 490.666 817.801 612.375L765.87 630.945C405.237 759.902 38.462 454.749 99.671 76.6757L108.142 24.3534L106.168 24.0338L97.697 76.3561C36.244 455.932 404.477 762.297 766.543 632.828L818.474 614.258ZM1418.74 1163.31C1478.86 808.424 1134.79 520.014 795.86 641.208L743.929 659.778C381.863 789.248 13.63 482.882 75.083 103.306L83.554 50.984L85.528 51.3036L77.057 103.626C15.848 481.699 382.623 786.852 743.256 657.895L795.187 639.325C1135.55 517.616 1481.09 807.251 1420.71 1163.64L1399.64 1288.01C1356.15 1544.66 1577.49 1768.18 1834.55 1727.22L1834.86 1729.2C1576.45 1770.37 1353.95 1545.67 1397.67 1287.68L1418.74 1163.31ZM773.246 668.159C1112.17 546.964 1456.25 835.374 1396.12 1190.26L1375.05 1314.63C1331.34 1572.62 1553.84 1797.32 1812.25 1756.15L1811.94 1754.17C1554.88 1795.13 1333.54 1571.61 1377.02 1314.96L1398.1 1190.59C1458.48 834.201 1112.94 544.566 772.573 666.276L720.642 684.845C360.009 813.802 -6.766 508.65 54.443 130.576L62.914 78.2541L60.94 77.9345L52.469 130.257C-8.98399 509.833 359.249 816.198 721.315 686.728L773.246 668.159ZM1373.51 1217.21C1433.64 862.324 1089.56 573.914 750.632 695.109L698.701 713.679C336.635 843.148 -31.598 536.783 29.855 157.207L38.326 104.885L40.3 105.204L31.829 157.527C-29.38 535.6 337.395 840.752 698.028 711.795L749.959 693.226C1090.32 571.516 1435.86 861.151 1375.48 1217.54L1354.41 1341.92C1310.93 1598.56 1532.26 1822.08 1789.32 1781.12L1789.64 1783.1C1531.23 1824.27 1308.73 1599.57 1352.44 1341.58L1373.51 1217.21ZM728.018 722.06C1066.94 600.865 1411.02 889.275 1350.9 1244.16L1329.82 1368.53C1286.11 1626.52 1508.61 1851.22 1767.02 1810.05L1766.71 1808.07C1509.65 1849.03 1288.31 1625.51 1331.79 1368.87L1352.87 1244.49C1413.25 888.102 1067.71 598.467 727.345 720.176L675.414 738.746C314.781 867.703 -51.9944 562.551 9.21501 184.477L17.686 132.155L15.712 131.835L7.24101 184.158C-54.212 563.734 314.021 870.099 676.087 740.629L728.018 722.06Z" fill="#FF9636"/>
</mask>
<g mask="url(#mask0)">
<path d="M2388.53 -358.587H-325.68V2121.85H2388.53V-358.587Z" fill="url(#paint0_linear)"/>
</g>
<defs>
<linearGradient id="paint0_linear" x1="58.5" y1="76.5" x2="1778.5" y2="1631" gradientUnits="userSpaceOnUse">
<stop stop-color="#E3E6EC" stop-opacity="0"/>
<stop offset="0.369792" stop-color="#FF5A48"/>
<stop offset="0.682292" stop-color="#392AEA"/>
<stop offset="1" stop-color="white" stop-opacity="0"/>
</linearGradient>
</defs>
</svg>
